<?xml version="1.0" standalone="no"?>
<!DOCTYPE svg PUBLIC "-//W3C//DTD SVG 20010904//EN"
 "http://www.w3.org/TR/2001/REC-SVG-20010904/DTD/svg10.dtd">
<svg version="1.0" xmlns="http://www.w3.org/2000/svg"
 width="494.000000pt" height="181.000000pt" viewBox="0 0 494.000000 181.000000"
 preserveAspectRatio="xMidYMid meet">

<g transform="translate(0.000000,181.000000) scale(0.100000,-0.100000)"
fill="#000000" stroke="none">
<path d="M995 1582 c-33 -10 -85 -29 -115 -43 -63 -30 -160 -103 -160 -122 0
-7 18 -30 39 -51 l39 -38 -34 -46 c-123 -160 -138 -364 -42 -544 30 -56 30
-60 14 -76 -16 -16 -18 -16 -36 8 -11 14 -34 59 -52 100 -32 72 -33 80 -33
205 1 142 15 196 76 295 l28 45 -24 24 c-29 30 -41 22 -84 -53 -57 -100 -76
-178 -75 -311 0 -103 4 -131 27 -193 27 -78 70 -155 118 -212 l29 -34 44 43
c44 43 46 44 68 27 125 -90 202 -118 328 -119 103 -1 167 14 252 61 39 22 49
24 62 13 9 -7 16 -17 16 -21 0 -14 -91 -60 -170 -87 -137 -46 -318 -21 -450
62 l-43 27 -26 -27 c-26 -26 -26 -26 -6 -41 39 -30 156 -84 212 -99 77 -20
253 -20 324 1 74 22 181 79 232 125 l42 37 -43 45 -44 44 41 54 c49 64 79 139
94 232 14 91 -2 188 -50 290 -33 70 -35 79 -21 93 14 14 17 13 35 -13 84 -118
113 -282 77 -433 -8 -36 -33 -99 -55 -140 l-41 -75 28 -23 c27 -23 28 -24 42
-6 29 40 83 158 99 217 22 83 21 244 -2 322 -22 79 -64 159 -115 224 l-42 53
-47 -45 -46 -46 -30 26 c-16 13 -68 44 -115 66 l-85 42 -126 0 -126 0 -84 -42
c-78 -39 -85 -41 -102 -25 -17 15 -15 18 35 49 81 51 168 75 273 76 129 0 213
-24 322 -93 21 -13 25 -12 49 12 l27 26 -59 38 c-98 63 -181 87 -314 91 -89 2
-129 -1 -175 -15z m258 -197 c84 -22 134 -50 194 -111 78 -78 116 -164 121
-275 7 -139 -36 -240 -144 -338 -67 -61 -143 -92 -246 -99 -170 -10 -320 77
-398 233 -117 233 3 504 258 586 70 22 140 24 215 4z"/>
<path d="M1060 1324 c-97 -26 -179 -95 -230 -194 -36 -68 -40 -200 -10 -280
31 -83 94 -151 178 -192 60 -30 75 -33 157 -33 79 0 97 4 149 29 76 37 140
101 174 174 23 49 27 70 27 152 0 114 -18 162 -92 241 -56 60 -116 93 -198
108 -73 14 -87 13 -155 -5z m176 -55 c24 -6 44 -14 44 -18 0 -3 -12 -13 -28
-22 -15 -8 -66 -39 -114 -67 l-88 -52 0 80 c0 78 0 79 28 83 55 8 114 7 158
-4z m-248 -184 c0 -44 -3 -92 -7 -107 l-6 -27 -57 35 c-41 25 -58 42 -58 57 0
32 39 104 78 145 l36 37 7 -30 c4 -16 7 -66 7 -110z m387 98 c35 -38 75 -121
75 -155 l0 -27 -115 66 c-63 37 -115 69 -115 73 0 6 111 69 122 70 4 0 19 -12
33 -27z m-164 -110 c46 -27 48 -30 55 -82 4 -30 3 -61 -2 -68 -5 -8 -32 -27
-59 -43 l-51 -29 -52 30 -52 29 0 70 0 70 48 24 c26 14 51 25 56 26 4 0 30
-12 57 -27z m223 -134 c19 -17 19 -19 2 -64 -19 -48 -90 -145 -106 -145 -6 0
-10 56 -10 140 l0 141 48 -27 c26 -15 56 -35 66 -45z m-460 -50 c58 -33 108
-64 110 -68 3 -4 -23 -24 -57 -44 l-62 -36 -28 27 c-43 41 -103 182 -78 182 5
0 57 -27 115 -61z m289 -124 c-2 -37 -5 -71 -8 -74 -4 -3 -39 -7 -80 -9 -79
-4 -154 13 -137 30 21 21 207 128 217 124 6 -2 9 -33 8 -71z"/>
<path d="M2717 1334 c-4 -4 -7 -16 -7 -26 0 -13 8 -18 31 -18 26 0 30 3 27 23
-3 22 -36 36 -51 21z"/>
<path d="M3060 1195 l0 -135 30 0 30 0 0 135 0 135 -30 0 -30 0 0 -135z"/>
<path d="M2076 1297 c-45 -45 -32 -91 40 -133 57 -34 52 -49 -15 -48 -51 2
-52 1 -49 -25 3 -24 7 -26 60 -29 66 -3 95 9 109 46 16 42 3 68 -51 101 -27
17 -50 35 -50 41 0 17 28 23 60 12 27 -10 30 -9 36 14 8 33 3 37 -60 42 -48 4
-57 1 -80 -21z"/>
<path d="M3244 1306 c-49 -22 -64 -52 -64 -124 0 -57 3 -67 30 -93 28 -29 32
-30 107 -27 l78 3 3 73 3 72 -56 0 c-52 0 -55 -1 -55 -24 0 -18 6 -25 23 -28
14 -2 23 -11 25 -25 3 -19 -1 -23 -21 -23 -41 0 -55 10 -67 45 -9 26 -8 41 4
69 15 35 16 36 70 36 47 0 56 3 61 21 4 11 4 23 1 26 -13 14 -112 13 -142 -1z"/>
<path d="M2297 1240 c-45 -36 -47 -120 -4 -160 14 -14 35 -20 68 -20 66 0 90
22 97 88 4 47 2 54 -26 82 -37 37 -95 41 -135 10z m91 -76 c4 -48 -18 -75 -43
-54 -18 15 -20 71 -3 88 23 23 43 9 46 -34z"/>
<path d="M2529 1231 c-39 -40 -41 -109 -4 -147 22 -21 33 -25 78 -22 47 3 52
5 55 28 3 23 0 25 -40 25 -41 0 -43 1 -46 33 -4 44 14 65 50 58 23 -5 30 -1
37 17 10 26 -5 35 -62 36 -30 1 -45 -6 -68 -28z"/>
<path d="M2707 1253 c-4 -3 -7 -48 -7 -100 l0 -93 35 0 35 0 0 100 0 100 -28
0 c-16 0 -32 -3 -35 -7z"/>
<path d="M2858 1253 c-20 -5 -22 -12 -9 -32 6 -9 20 -12 40 -9 19 3 36 -1 42
-9 13 -14 7 -17 -50 -27 -43 -8 -61 -23 -61 -51 0 -60 41 -86 93 -60 21 10 34
12 41 5 5 -5 21 -10 34 -10 25 0 25 0 19 82 -4 69 -9 85 -27 100 -21 17 -79
22 -122 11z m82 -112 c0 -23 -14 -41 -31 -41 -22 0 -27 35 -6 43 20 9 37 8 37
-2z"/>
<path d="M3457 1253 c-4 -3 -7 -48 -7 -100 l0 -93 35 0 35 0 0 54 c0 59 16 86
51 86 14 0 19 7 19 30 0 35 -22 40 -53 13 -18 -17 -19 -17 -28 0 -10 17 -40
23 -52 10z"/>
<path d="M3658 1253 c-20 -5 -22 -12 -9 -32 6 -9 19 -12 39 -8 27 6 52 -6 52
-25 0 -4 -17 -8 -38 -8 -52 0 -82 -23 -82 -64 0 -17 5 -37 12 -44 15 -15 72
-16 98 -2 13 7 21 7 25 0 3 -5 18 -10 32 -10 l25 0 -4 81 c-3 70 -6 83 -27
100 -22 18 -79 24 -123 12z m77 -113 c8 -13 -13 -40 -31 -40 -17 0 -18 37 -1
43 19 8 25 8 32 -3z"/>
<path d="M3860 1160 l0 -100 35 0 35 0 0 63 c0 68 10 93 33 84 14 -5 27 -57
27 -114 0 -30 3 -33 30 -33 30 0 30 0 30 59 0 42 5 64 16 76 28 28 39 12 42
-63 l3 -72 35 0 36 0 -3 86 c-3 71 -7 88 -23 100 -25 18 -66 18 -92 0 -17 -12
-22 -12 -39 0 -23 17 -59 18 -87 3 -14 -8 -23 -8 -31 0 -6 6 -19 11 -29 11
-16 0 -18 -10 -18 -100z"/>
<path d="M3011 896 c-1 -24 -4 -27 -23 -23 -49 13 -83 -44 -53 -89 12 -19 23
-23 50 -21 33 2 34 3 40 52 3 28 1 64 -4 80 l-9 30 -1 -29z m-5 -61 c8 -30 0
-53 -21 -61 -22 -9 -45 14 -45 46 0 33 7 40 36 40 17 0 25 -7 30 -25z"/>
<path d="M3121 849 c-1 -72 0 -77 22 -83 34 -9 44 -7 61 10 17 17 21 61 7 83
-6 8 -24 14 -44 13 -32 -1 -36 2 -40 26 -2 15 -5 -7 -6 -49z m82 -9 c12 -45
-20 -83 -49 -59 -14 12 -19 60 -7 72 14 15 51 6 56 -13z"/>
<path d="M2160 835 c0 -48 4 -74 10 -70 6 3 10 17 10 29 0 17 8 25 33 32 28 9
32 14 32 44 0 34 -1 35 -42 38 l-43 3 0 -76z m71 49 c11 -14 10 -19 -10 -35
-33 -27 -41 -24 -41 16 0 28 4 35 19 35 10 0 25 -7 32 -16z"/>
<path d="M3432 833 c2 -77 2 -77 5 -15 2 34 7 62 11 62 4 0 24 -27 44 -61 21
-33 42 -57 48 -54 5 3 10 39 9 78 -1 51 -3 65 -9 47 -4 -14 -8 -43 -9 -64 l-1
-39 -40 61 c-22 34 -44 62 -50 62 -6 0 -9 -30 -8 -77z"/>
<path d="M3834 888 c-20 -32 5 -128 33 -128 17 1 17 1 1 11 -21 12 -25 85 -6
91 9 3 8 9 -4 21 -13 13 -19 14 -24 5z"/>
<path d="M2313 870 c-30 -12 -39 -54 -19 -85 18 -27 54 -33 74 -13 18 18 14
73 -6 91 -21 19 -19 19 -49 7z m53 -35 c8 -30 0 -53 -21 -61 -22 -9 -45 14
-45 46 0 33 7 40 36 40 17 0 25 -7 30 -25z"/>
<path d="M2415 843 c4 -21 13 -49 20 -63 l13 -25 10 25 c5 14 14 36 19 50 10
24 10 24 23 -15 7 -22 16 -44 20 -49 11 -11 27 21 34 69 l6 40 -15 -39 c-21
-54 -22 -54 -36 -7 -15 50 -35 53 -43 6 -10 -51 -22 -51 -35 0 -14 54 -26 60
-16 8z"/>
<path d="M2611 864 c-44 -31 -17 -105 37 -103 l27 1 -29 8 c-56 17 -56 50 0
50 33 0 42 12 26 36 -13 19 -39 23 -61 8z m49 -19 c0 -10 -10 -15 -30 -15 -22
0 -28 4 -24 15 4 8 17 15 30 15 15 0 24 -6 24 -15z"/>
<path d="M2758 874 c-4 -3 -14 -7 -25 -8 -14 -2 -19 -13 -21 -46 -2 -23 2 -48
7 -53 8 -8 11 1 11 30 0 32 5 46 22 57 12 9 19 18 17 21 -3 3 -8 2 -11 -1z"/>
<path d="M2820 860 c-39 -39 -12 -101 43 -99 27 2 28 2 7 6 -61 12 -69 53 -10
53 33 0 38 3 33 18 -6 18 -32 42 -45 42 -4 0 -17 -9 -28 -20z m58 -17 c2 -9
-7 -13 -27 -13 -30 0 -39 9 -24 24 11 10 46 3 51 -11z"/>
<path d="M3606 864 c-18 -18 -21 -56 -6 -85 7 -13 21 -19 43 -18 l32 1 -29 8
c-56 17 -56 50 0 50 23 0 34 5 34 14 0 18 -27 46 -45 46 -7 0 -21 -7 -29 -16z
m54 -19 c0 -10 -10 -15 -30 -15 -22 0 -28 4 -24 15 4 8 17 15 30 15 15 0 24
-6 24 -15z"/>
<path d="M3772 858 c-22 -22 -24 -22 -36 -5 -20 26 -29 20 -10 -8 15 -23 15
-27 0 -50 -22 -34 -20 -45 4 -15 l19 25 27 -25 c27 -25 25 -11 -4 23 -13 15
-13 19 0 35 17 19 31 42 26 42 -2 0 -14 -10 -26 -22z"/>
<path d="M3972 808 c-2 -61 -6 -79 -19 -87 -17 -10 -17 -10 0 -11 25 0 28 16
24 101 l-3 74 -2 -77z"/>
<path d="M4038 873 c-29 -7 -21 -41 13 -58 36 -19 33 -38 -7 -46 l-29 -7 32
-1 c23 -1 35 5 43 19 9 18 6 23 -25 41 -39 23 -38 39 3 39 21 0 24 2 12 10 -8
5 -17 9 -20 9 -3 -1 -13 -3 -22 -6z"/>
<path d="M3260 824 c26 -59 25 -79 -2 -99 -21 -15 -21 -16 -3 -13 19 3 62 77
80 138 11 38 -8 14 -26 -33 l-16 -41 -18 47 c-10 26 -21 47 -26 47 -5 0 1 -21
11 -46z"/>
<path d="M3910 770 c0 -5 5 -10 11 -10 5 0 7 5 4 10 -3 6 -8 10 -11 10 -2 0
-4 -4 -4 -10z"/>
</g>
</svg>
